<svg width="24" height="22" viewBox="0 0 24 22" fill="none" xmlns="http://www.w3.org/2000/svg">
<ellipse cx="4.5662" cy="3.48534" rx="0.507359" ry="0.386588" fill="#D9D9D9"/>
<ellipse cx="4.05886" cy="4.6482" rx="2.02944" ry="1.54944" fill="#FC7A09"/>
<ellipse cx="8.11782" cy="1.54944" rx="2.02944" ry="1.54944" fill="#FC7A09"/>
<ellipse cx="15.2208" cy="1.54944" rx="2.02944" ry="1.54944" fill="#FC7A09"/>
<ellipse cx="4.05886" cy="4.6482" rx="2.02944" ry="1.54944" fill="#FC7A09"/>
<ellipse cx="8.11782" cy="1.54944" rx="2.02944" ry="1.54944" fill="#FC7A09"/>
<ellipse cx="19.2797" cy="4.6482" rx="2.02944" ry="1.54944" fill="#FC7A09"/>
<ellipse cx="19.2797" cy="4.6482" rx="2.02944" ry="1.54944" fill="#FC7A09"/>
<path d="M19.2795 3.59875C19.7401 3.59875 20.1388 3.74219 20.4114 3.95032C20.6834 4.15808 20.8088 4.4096 20.8088 4.64856C20.8087 4.88747 20.6834 5.13911 20.4114 5.3468C20.1388 5.55487 19.74 5.69739 19.2795 5.69739C18.819 5.69736 18.4203 5.55491 18.1477 5.3468C17.8757 5.13912 17.7504 4.88746 17.7502 4.64856C17.7502 4.40965 17.8758 4.15805 18.1477 3.95032C18.4203 3.74221 18.819 3.59878 19.2795 3.59875Z" stroke="#EB880E" stroke-opacity="0.2"/>
<g filter="url(#filter0_d_18_234)">
<path d="M10.3631 5.77482C11.1136 5.12755 12.2249 5.12755 12.9755 5.77482L17.7 9.84938C19.1038 11.0601 18.2476 13.3639 16.3938 13.3639H6.94475C5.09094 13.3639 4.23471 11.0601 5.63855 9.84938L10.3631 5.77482Z" fill="#FC7A09"/>
<path d="M10.6895 6.1532C11.2522 5.66789 12.0856 5.6681 12.6484 6.1532L17.373 10.2284C18.4259 11.1364 17.7839 12.8641 16.3936 12.8641H6.94434C5.55441 12.8638 4.91254 11.1364 5.96484 10.2284L10.6895 6.1532Z" stroke="#B95D06" stroke-opacity="0.05"/>
</g>
<defs>
<filter id="filter0_d_18_234" x="0.940735" y="5.28931" width="21.4571" height="16.0746" filterUnits="userSpaceOnUse" color-interpolation-filters="sRGB">
<feFlood flood-opacity="0" result="BackgroundImageFix"/>
<feColorMatrix in="SourceAlpha" type="matrix" values="0 0 0 0 0 0 0 0 0 0 0 0 0 0 0 0 0 0 127 0" result="hardAlpha"/>
<feOffset dy="4"/>
<feGaussianBlur stdDeviation="2"/>
<feComposite in2="hardAlpha" operator="out"/>
<feColorMatrix type="matrix" values="0 0 0 0 0 0 0 0 0 0 0 0 0 0 0 0 0 0 0.25 0"/>
<feBlend mode="normal" in2="BackgroundImageFix" result="effect1_dropShadow_18_234"/>
<feBlend mode="normal" in="SourceGraphic" in2="effect1_dropShadow_18_234" result="shape"/>
</filter>
</defs>
</svg>
