<svg width="27" height="30" viewBox="0 0 27 30" fill="none" xmlns="http://www.w3.org/2000/svg">
<path fill-rule="evenodd" clip-rule="evenodd" d="M23.1945 4.9621C23.1007 2.7448 20.6718 3.04566 19.8916 3.47588C19.5134 3.71052 19.2127 4.03556 19.0274 4.41601C18.8848 4.72876 18.8473 5.07259 18.9194 5.40472C18.9914 5.73685 19.17 6.04263 19.4328 6.28403C19.6604 6.52657 19.9429 6.7223 20.2611 6.85802C20.5794 6.99375 20.926 7.06634 21.2777 7.07088C21.8313 6.99935 22.3349 6.74329 22.6896 6.35306C23.0443 5.96283 23.2244 5.46666 23.1945 4.9621ZM21.1795 5.556C21.0699 5.54474 20.9637 5.51392 20.8672 5.46534C20.7708 5.41676 20.6859 5.35137 20.6176 5.27298C20.4914 5.19005 20.3945 5.0759 20.3385 4.94433C20.2828 4.81273 20.2582 4.87091 20.2719 4.83453C20.3057 4.60789 20.4096 4.39455 20.5717 4.21902C20.6688 4.12351 20.7953 4.05631 20.9349 4.02598C21.0746 3.99565 21.2211 4.00357 21.3559 4.04872C21.4907 4.09387 21.6076 4.17421 21.6917 4.27952C21.7758 4.38483 21.8234 4.51033 21.8283 4.64005C21.8929 5.06338 21.6611 5.57115 21.1795 5.556Z" fill="white"/>
<path fill-rule="evenodd" clip-rule="evenodd" d="M12.0654 7.21892C12.1672 7.20404 12.2662 7.17601 12.3592 7.13567C13.5705 6.61091 13.4637 6.47656 13.4644 6.37934C13.4674 5.88351 12.2079 5.71768 12.1273 5.70503C11.998 5.6871 11.8666 5.68628 11.7371 5.7026C11.6142 5.72974 11.4968 5.77412 11.3892 5.83412C10.2448 6.40791 10.2704 6.61468 10.3229 6.83254C10.3603 7.30553 11.9833 7.21962 12.064 7.22012M6.89172 8.65238C6.97198 8.6101 7.04484 8.55731 7.10795 8.49573C7.97151 7.65404 7.81091 7.51935 7.77107 7.43525C7.58538 7.00874 6.32446 7.28041 6.29756 7.28024C6.17672 7.31004 6.06259 7.35869 5.96033 7.42398C5.86126 7.49061 5.77155 7.56662 5.69119 7.652C4.82657 8.66383 5.16168 8.86036 5.24038 8.96902C5.52138 9.21383 6.86609 8.66437 6.89172 8.65238ZM1.77902 13.6969C2.08783 13.796 2.23507 13.6997 2.99116 12.8318C3.06165 12.7472 3.12498 12.6585 3.18116 12.5657C3.24513 12.4728 3.29125 12.3707 3.31758 12.2639C3.67219 11.0557 3.40509 10.9568 3.32609 10.8955C2.9507 10.6866 1.97981 11.4814 1.97921 11.5774C1.89254 11.6693 1.82016 11.7701 1.76207 11.8799C1.69951 11.9897 1.65438 12.1065 1.62671 12.2303C1.29667 13.5967 1.65817 13.6597 1.77902 13.6969ZM1.7385 18.045C1.75263 17.9357 1.75331 17.8268 1.74053 17.7181C1.72886 17.614 1.70236 17.5118 1.66171 17.4138C1.19974 16.2005 0.958407 16.284 0.837332 16.2833C0.408188 16.2806 0.120694 17.296 0.0791252 17.4902C0.0568134 17.6145 0.0560249 17.7412 0.0767879 17.8657C0.102942 17.9866 0.142572 18.1039 0.195677 18.2177C0.763467 19.5046 1.11287 19.35 1.2341 19.3265C1.35532 19.3029 1.65144 19.2804 1.7385 18.045ZM2.86509 22.2789C2.83619 22.2029 2.7909 22.1328 2.73184 22.0726C1.90738 21.1718 1.66395 21.3757 1.63705 21.3755C1.20715 21.4944 1.25418 22.5848 1.25418 22.5848C1.25708 22.6877 1.28886 22.7883 1.34653 22.8771C1.39351 22.9705 1.45654 23.0566 1.53329 23.1322C2.37188 23.9237 2.66844 23.8296 2.86957 23.7215C3.07069 23.6133 2.87839 22.3033 2.86509 22.2789ZM5.99295 26.1752C5.84319 26.0286 5.67198 25.9012 5.48408 25.7965C5.29773 25.692 4.04071 25.1215 3.74413 25.4344C3.4462 25.7485 4.33837 26.7956 4.3652 26.8079C4.45869 26.9179 4.5657 27.0154 4.68626 27.1004C4.81403 27.1781 4.94768 27.2478 5.08721 27.3095C6.59822 27.9241 6.77552 27.5375 6.84219 27.4176C6.91021 27.2965 7.00559 27.1027 5.99295 26.1752ZM23.398 24.1397C23.3142 24.2101 23.2373 24.2869 23.1679 24.3692C23.1019 24.4579 23.043 24.5503 22.9913 24.6464C22.4622 25.794 22.6891 25.8562 22.7813 25.9649C23.1426 26.271 24.2464 25.5256 24.2734 25.5136C24.3756 25.4349 24.4625 25.3414 24.5307 25.2369C24.6094 25.1361 24.6728 25.0275 24.7211 24.9111C25.2241 23.6309 24.8494 23.5314 24.73 23.4698C24.6093 23.4083 24.2732 23.3819 23.398 24.1397ZM25.718 17.5526C25.3952 17.5506 25.2754 17.5498 24.8776 19.0009C24.8768 19.1345 24.8087 19.2678 24.7809 19.4122C24.7531 19.5567 24.7791 19.6918 24.7783 19.8242C24.7688 21.3506 25.0516 21.3037 25.1994 21.3411C25.6937 21.4657 26.251 20.3292 26.359 20.0516C26.4084 19.898 26.4452 19.7406 26.4696 19.5795C26.4903 19.4189 26.4914 19.2567 26.4726 19.0959C26.2673 17.4831 25.8795 17.5536 25.718 17.5526ZM26.518 13.9603C26.4737 13.8085 26.4115 13.6614 26.3324 13.5216C25.5113 12.0751 25.1332 12.3037 25 12.3028C24.8655 12.302 24.595 12.5312 24.8419 13.9255C24.8701 14.1566 24.9319 14.3867 25.026 14.6048C25.1189 14.8229 25.7541 16.075 26.2514 15.9444C26.4128 15.9454 26.7349 15.8502 26.623 14.3717C26.6104 14.2303 26.575 14.0913 26.518 13.959" fill="#0C6FFF"/>
<path fill-rule="evenodd" clip-rule="evenodd" d="M16.6475 7.65947C16.862 8.20607 17.1179 8.73673 17.4152 9.25144C17.7613 9.83046 18.1602 10.3782 18.6117 10.8947C19.2807 11.628 19.9916 12.3268 20.7444 12.991C20.7832 13.034 20.8314 13.0693 20.886 13.0947C20.9406 13.12 21.0005 13.1348 21.0617 13.1381C21.123 13.1414 21.1843 13.1332 21.2418 13.114C21.2993 13.0947 21.3518 13.0649 21.3958 13.0264C21.4399 12.9878 21.4746 12.9414 21.4977 12.8901C21.5208 12.8388 21.5319 12.7837 21.5301 12.7283C21.5284 12.6729 21.514 12.6184 21.4877 12.5682C21.4614 12.5181 21.4239 12.4735 21.3775 12.4371C20.6873 11.7697 20.0468 11.0617 19.4602 10.3178C19.082 9.83916 18.7614 9.32546 18.5037 8.78546C18.2619 8.32219 18.0589 7.84318 17.8965 7.35248C17.743 6.85088 17.6293 6.34007 17.5562 5.82394C17.5303 5.47301 17.5325 5.12088 17.5628 4.77031C17.5688 4.46044 17.6285 4.15455 17.7433 3.86238C18.006 3.10914 18.5672 2.47028 19.3193 2.06817C20.0715 1.66606 20.9619 1.52898 21.8198 1.68318C22.6791 1.78818 23.4608 2.18884 24.0017 2.80156C24.5425 3.41427 24.8009 4.19172 24.7227 4.97165C24.654 6.21362 24.3704 7.43797 23.8822 8.60018C23.3865 9.75528 22.6211 10.8 21.6379 11.6634C21.5413 11.7446 21.4844 11.8573 21.4797 11.9766C21.475 12.0959 21.523 12.212 21.6131 12.2994C21.7032 12.3869 21.828 12.4384 21.9601 12.4428C22.0921 12.4471 22.2206 12.4039 22.3173 12.3227C23.4672 11.4123 24.3887 10.2907 25.0203 9.03263C25.6227 7.78704 26.0103 6.46598 26.1708 5.11434C26.3627 3.97784 26.0514 2.81821 25.3045 1.88631C24.5575 0.954407 23.4348 0.325161 22.1792 0.134689C20.936 -0.10692 19.6382 0.0796588 18.5406 0.657834C17.4429 1.23601 16.6244 2.16407 16.2457 3.25999C16.1143 3.62376 16.0433 4.0025 16.0369 4.38528C15.996 4.91004 16.0155 5.43882 16.0944 5.96067C16.2253 6.54079 16.4096 7.10705 16.6475 7.65947Z" fill="white"/>
<path fill-rule="evenodd" clip-rule="evenodd" d="M24.326 17.2777C24.392 16.391 24.3532 15.5023 24.2079 14.624C24.0757 14.0262 23.8581 13.4464 23.5608 12.8991C23.5351 12.8447 23.4974 12.7957 23.4502 12.7548C23.4029 12.7139 23.347 12.6822 23.2858 12.6613C23.2245 12.6405 23.1593 12.6311 23.094 12.6337C23.0287 12.6362 22.9646 12.6507 22.9057 12.6762C22.7861 12.7257 22.693 12.8159 22.647 12.9272C22.6009 13.0385 22.6055 13.1618 22.6598 13.2702C22.9655 13.8713 23.1566 14.5153 23.2251 15.1745C23.2693 15.7958 23.2655 16.4191 23.2135 17.0399C21.8714 17.1774 20.5303 17.3635 19.1882 17.4876L18.8922 17.4857C18.8862 17.0399 18.8531 16.5946 18.7929 16.1519C18.6673 15.3264 18.4524 14.5138 18.1515 13.7258C17.4373 11.918 16.4117 10.223 15.1127 8.7035C15.0671 8.65329 15.0098 8.61286 14.9448 8.58513C14.8798 8.5574 14.8088 8.54307 14.737 8.54317C14.8115 8.4695 14.8591 8.37687 14.8732 8.27787C14.8768 8.22611 14.8689 8.17423 14.8499 8.12525C14.831 8.07628 14.8014 8.03121 14.7629 7.99269C14.7244 7.95418 14.6778 7.923 14.6258 7.90099C14.5738 7.87898 14.5174 7.86658 14.4601 7.86452C12.4717 7.69938 10.4776 8.11097 8.76738 9.03953C7.12776 10.0102 5.74619 11.2964 4.7214 12.8061C3.43836 14.6896 2.90844 16.9139 3.2198 19.1091C3.33282 20.2417 3.73175 21.3361 4.38596 22.3082C5.04016 23.2804 5.9322 24.1044 6.99352 24.7169C8.68159 25.5891 10.5672 26.1022 12.5067 26.2173C14.4463 26.3323 16.3889 26.0463 18.1866 25.3809C19.9801 24.7277 21.5194 23.6103 22.6114 22.169C23.7034 20.7276 24.2994 19.0264 24.3246 17.2789M16.5787 14.1657C16.7957 14.9011 16.97 15.6451 17.1016 16.3978C17.0992 16.7977 17.1908 17.1981 17.2421 17.6104C15.9004 17.6749 14.6403 17.5942 13.3125 17.5859C12.5215 17.581 11.717 17.576 10.9265 17.486C10.9281 17.2308 10.9298 16.9646 11.0255 16.7112C11.1759 15.8947 11.3773 15.0882 11.6298 14.2917C12.2999 12.1156 13.9052 8.60119 14.3442 9.18484C15.3404 10.744 16.0925 12.4203 16.5787 14.1657ZM9.36433 9.96445C10.5127 9.29077 11.8275 8.88322 13.1925 8.77783C11.8796 10.3345 10.8297 12.0588 10.0771 13.8943C9.74207 14.7392 9.48995 15.6091 9.32369 16.494L9.31766 17.4638C7.79119 17.3405 6.27082 17.1612 4.76033 16.9262C4.84308 15.7358 5.22159 14.5799 5.86842 13.5424C6.72241 12.1285 7.91709 10.905 9.36433 9.96445ZM4.74872 19.0092C4.69373 18.6477 4.66454 18.2834 4.66133 17.9185C6.12161 18.2545 7.62263 18.53 9.14959 18.7449L9.14671 19.2067C9.18164 20.9448 9.44532 22.6746 9.93261 24.3584C9.19832 24.151 8.49343 23.8664 7.83244 23.5105C6.98003 23.017 6.26217 22.3557 5.73275 21.5761C5.20333 20.7966 4.8761 19.919 4.77562 19.0094L4.74872 19.0092ZM11.0167 24.6083C10.6753 22.8401 10.5515 21.0435 10.6478 19.2513L10.6497 18.9475C11.7226 19.0514 12.7944 19.131 13.8679 19.1377C14.9414 19.1444 16.1473 19.0668 17.2605 18.9765C17.3441 20.6784 17.203 22.3814 16.8401 24.0502C16.7983 24.152 16.7976 24.2639 16.8381 24.3662C14.9646 24.9067 12.9657 24.9903 11.0436 24.6084L11.0167 24.6083ZM17.9272 24.0448C18.5048 22.3242 18.8311 20.5424 18.8978 18.7448L19.3288 18.6746C20.5626 18.4404 21.7711 18.1575 23.0062 17.9233C22.8305 19.2543 22.2715 20.5199 21.385 21.5941C20.4986 22.6682 19.3156 23.5133 17.9541 24.045L17.9272 24.0448Z" fill="white"/>
<path fill-rule="evenodd" clip-rule="evenodd" d="M10.7432 27.6959L10.3134 27.596C10.1664 27.5829 10.0193 27.582 9.87211 27.5932C8.23625 27.583 8.24819 27.8262 8.20708 27.9462C8.06984 28.3817 9.40762 28.9466 9.54177 29.0082C9.70372 29.07 9.87345 29.1075 10.0509 29.1208C10.2293 29.1364 10.4078 29.1335 10.5864 29.1119C12.3442 28.9892 12.2796 28.5646 12.2805 28.42C12.2558 28.0553 12.0945 28.0421 10.7432 27.6959ZM15.5854 27.4343L15.2369 27.4322C15.1209 27.4505 15.0081 27.4824 14.9014 27.5273C13.5571 28.0038 13.6769 28.21 13.6762 28.3193C13.6737 28.7192 14.8523 28.9197 15.1333 28.9458C15.2722 28.9653 15.4113 28.9662 15.5504 28.9484C15.6896 28.9201 15.8235 28.8764 15.9521 28.8172C17.2972 28.2082 17.1527 27.8682 17.113 27.7586C16.9937 27.4674 16.8056 27.4298 15.5854 27.4343ZM20.206 26.4459C19.9991 26.4746 19.7959 26.5222 19.5997 26.5879C19.4042 26.6523 18.1883 27.2573 18.253 27.6697C18.3177 28.0821 19.8194 28.0307 19.8463 28.0308C19.998 28.0212 20.1457 27.9938 20.2895 27.9485C20.4368 27.9105 20.5757 27.8547 20.7062 27.781C21.9306 27.1104 21.9193 26.7713 21.7859 26.5772C21.6526 26.3832 21.628 26.2238 20.206 26.4459Z" fill="#0C6FFF"/>
</svg>
