<svg width="24" height="24" viewBox="0 0 24 24" fill="none" xmlns="http://www.w3.org/2000/svg">
<path fill-rule="evenodd" clip-rule="evenodd" d="M23.4525 6.05263C23.2629 5.38361 22.9733 4.74708 22.5935 4.16463C22.2131 3.55807 21.7137 3.03488 21.1255 2.62663C18.4193 0.887791 15.2651 -0.0247429 12.0485 0.000629914C8.82083 -0.0295506 5.67661 1.02557 3.1205 2.99663C2.24073 3.71468 1.50826 4.59623 0.963498 5.59263C0.408086 6.60353 0.0900528 7.72759 0.0334984 8.87963C-0.0111661 9.33454 -0.0111661 9.79272 0.0334984 10.2476C0.0424198 10.3926 0.0828256 10.5339 0.151904 10.6617C0.220983 10.7895 0.317076 10.9007 0.433498 10.9876C0.885498 11.2446 1.4015 11.3656 1.9215 11.3366C2.96324 11.1995 3.99677 11.0059 5.0175 10.7566C5.06923 10.753 5.11922 10.7364 5.16289 10.7085C5.20657 10.6805 5.24253 10.6421 5.2675 10.5966H5.3575C5.43678 10.6018 5.51489 10.5754 5.57469 10.5231C5.6345 10.4708 5.67111 10.3969 5.6765 10.3176C5.6765 9.92763 5.7765 9.14963 5.8665 8.46963C5.8925 8.10496 5.9525 7.74563 6.0465 7.39163C6.18013 7.23526 6.3633 7.12938 6.5655 7.09163C6.95883 7.02496 7.35483 6.99163 7.7535 6.99163C8.8325 6.89163 9.9205 6.80163 11.0095 6.75163H13.1565L16.3025 6.83163H17.1215C17.2146 6.83347 17.3064 6.85387 17.3915 6.89163C17.3975 7.02896 17.3975 7.16563 17.3915 7.30163C17.3188 7.94163 17.2822 8.58396 17.2815 9.22863C17.3013 9.42692 17.3632 9.6187 17.463 9.79115C17.5629 9.96361 17.6984 10.1128 17.8605 10.2286C18.1265 10.3986 18.4205 10.5236 18.7295 10.5976C19.1285 10.6976 19.5475 10.7376 19.9275 10.7976C20.3075 10.8576 20.9865 11.0076 21.5555 11.0366C21.8545 11.0626 22.1555 11.0316 22.4445 10.9466C22.7345 10.8456 22.9785 10.6436 23.1335 10.3766C23.2965 10.0946 23.4145 9.78863 23.4835 9.46863C23.631 8.90163 23.6947 8.31608 23.6725 7.73063C23.6572 7.16554 23.5834 6.60255 23.4525 6.05263ZM22.4545 9.21863C22.4138 9.39678 22.3569 9.57084 22.2845 9.73863C22.2845 9.81863 22.2145 9.89863 22.1345 9.92863C21.9101 9.97443 21.6789 9.97443 21.4545 9.92863C20.9665 9.92863 20.4565 9.77863 20.1075 9.73863C19.7451 9.71046 19.3848 9.66037 19.0285 9.58863C18.8314 9.55035 18.6421 9.47937 18.4685 9.37863C18.3095 9.27863 18.3095 9.05863 18.3095 8.82963C18.3095 8.25963 18.4295 7.60163 18.3995 7.21163C18.4012 6.96765 18.3641 6.72495 18.2895 6.49263C18.2263 6.32149 18.1108 6.17456 17.9595 6.07263C17.7793 5.96554 17.5786 5.89741 17.3705 5.87263C17.0181 5.85188 16.6649 5.85188 16.3125 5.87263H13.1765C12.4365 5.87263 11.6985 5.87263 10.9595 5.94263C9.8605 5.99263 8.7725 6.15263 7.6835 6.28263C7.16081 6.30849 6.64376 6.40262 6.1455 6.56263C5.88403 6.66566 5.65843 6.84294 5.4965 7.07263C5.37875 7.41115 5.30482 7.76334 5.2765 8.12063C5.1965 8.77963 5.1265 9.62863 5.0865 10.1176C5.03695 10.1082 4.98605 10.1082 4.9365 10.1176C4.1785 10.2076 3.2195 10.5176 2.3205 10.6076C1.82459 10.6957 1.31346 10.611 0.872499 10.3676V10.2776C0.850342 10.1251 0.850342 9.97016 0.872499 9.81763V8.91963C0.926745 7.89448 1.21038 6.89457 1.7025 5.99363C2.21464 5.10695 2.89223 4.32683 3.6985 3.69563C6.11042 1.90049 9.05259 0.961879 12.0585 1.02863C15.0613 1.03611 17.9982 1.91008 20.5165 3.54563C20.9685 3.86563 21.3515 4.27363 21.6455 4.74363C21.9595 5.22163 22.2015 5.74363 22.3645 6.29163C22.4852 6.77096 22.5618 7.25696 22.5945 7.74963C22.6185 8.24363 22.5675 8.73963 22.4445 9.21763L22.4545 9.21863Z" fill="white"/>
<path fill-rule="evenodd" clip-rule="evenodd" d="M22.0545 15.2497C21.6101 14.1486 20.8664 13.1939 19.9075 12.4937C19.4541 12.1917 18.9597 11.9563 18.4395 11.7947C17.7142 11.5797 16.9774 11.4061 16.2325 11.2747C15.778 11.1759 15.3178 11.1061 14.8545 11.0657C14.8545 10.8557 14.9345 10.6357 14.9645 10.4057C14.996 10.2213 15.0128 10.0347 15.0145 9.84766C15.0245 9.65766 15.0245 9.46766 15.0145 9.27766C15.0145 8.78866 14.8745 8.34966 14.8245 7.94966C14.8257 7.87965 14.8022 7.81145 14.7583 7.75694C14.7143 7.70244 14.6526 7.66508 14.584 7.6514C14.5153 7.63771 14.444 7.64856 14.3825 7.68205C14.321 7.71554 14.2732 7.76955 14.2475 7.83466C14.2323 7.87111 14.2245 7.91019 14.2245 7.94966C14.1345 8.32966 14.0045 8.76966 13.9245 9.25766C13.9145 9.44766 13.9145 9.63766 13.9245 9.82766V10.3967C13.9245 10.5867 13.9245 10.8467 13.9945 11.0457H13.3565C12.1005 11.0857 10.8522 11.2057 9.61149 11.4057C9.68149 11.1257 9.75149 10.8257 9.80149 10.4957C9.81678 10.31 9.81678 10.1233 9.80149 9.93766C9.82149 9.75433 9.82149 9.57099 9.80149 9.38766C9.74236 8.94982 9.64191 8.51856 9.50149 8.09966C9.50949 8.05638 9.50787 8.01186 9.49674 7.96928C9.48561 7.92669 9.46525 7.88707 9.4371 7.85324C9.40894 7.8194 9.37369 7.79217 9.33384 7.77349C9.29398 7.7548 9.2505 7.74512 9.20649 7.74512C9.16247 7.74512 9.11899 7.7548 9.07914 7.77349C9.03928 7.79217 9.00403 7.8194 8.97588 7.85324C8.94772 7.88707 8.92736 7.92669 8.91623 7.96928C8.9051 8.01186 8.90348 8.05638 8.91149 8.09966C8.91149 8.45966 8.77149 8.86866 8.72149 9.34766C8.71149 9.52433 8.71149 9.70099 8.72149 9.87766V10.4067C8.72149 10.7967 8.79149 11.1557 8.81149 11.4757C7.50849 11.6197 6.23249 11.9557 5.02749 12.4737C4.1477 12.8931 3.38333 13.5205 2.80049 14.3017C2.50049 14.713 2.24382 15.149 2.03049 15.6097C1.73249 16.2927 1.48581 16.997 1.29249 17.7167C1.06249 18.5957 0.842487 19.5347 0.682487 20.4837C0.504914 21.4171 0.388002 22.3611 0.332487 23.3097C0.329571 23.3886 0.356932 23.4658 0.408977 23.5252C0.461021 23.5847 0.533818 23.6221 0.612487 23.6297C0.674318 23.623 0.732552 23.5973 0.779131 23.5561C0.825711 23.5149 0.858333 23.4602 0.872487 23.3997C0.942487 22.4757 1.07249 21.56 1.26249 20.6527C1.45249 19.7347 1.68249 18.8157 1.93149 17.9567C2.09149 17.3927 2.29115 16.8433 2.53049 16.3087C2.75425 15.7853 3.04284 15.2921 3.38949 14.8407C3.91839 14.1763 4.60482 13.6545 5.38649 13.3227C6.59765 12.8294 7.87775 12.5261 9.18149 12.4237C10.5602 12.2137 11.9519 12.1 13.3465 12.0837C14.2495 12.0777 15.1505 12.1717 16.0325 12.3637C16.7425 12.5237 17.4505 12.6437 18.1295 12.8637C18.5425 12.9997 18.9355 13.1917 19.2985 13.4327C20.0854 14.0125 20.6941 14.8014 21.0555 15.7097C21.6212 17.1696 21.994 18.6972 22.1645 20.2537C22.3075 21.0677 22.3585 21.8947 22.3145 22.7207C22.1285 22.8167 21.9245 22.8707 21.7145 22.8807C21.2192 22.9107 20.7232 22.9107 20.2265 22.8807H15.9825C13.0365 22.8807 10.0905 22.8107 7.13449 22.8807C5.16784 22.8797 3.20204 22.9627 1.24249 23.1297C1.18139 23.1192 1.11859 23.1256 1.06087 23.1482C1.00316 23.1709 0.952735 23.2088 0.915047 23.2581C0.87736 23.3073 0.853847 23.3659 0.84705 23.4275C0.840254 23.4891 0.850433 23.5514 0.876487 23.6077C0.908087 23.6752 0.961039 23.7306 1.02718 23.7651C1.09332 23.7996 1.16898 23.8114 1.24249 23.7987C3.18949 23.6987 5.14649 23.6587 7.10449 23.6587C10.0405 23.6587 12.9865 23.7487 15.9125 23.8487L20.1775 23.9587C20.8128 24.0133 21.4485 24.0133 22.0845 23.9587C22.4465 23.9087 22.7905 23.7687 23.0835 23.5487C23.3165 23.2917 23.4435 22.9577 23.4435 22.6107C23.4601 21.782 23.4066 20.9533 23.2835 20.1337C23.0924 18.4583 22.6791 16.8159 22.0545 15.2497Z" fill="white"/>
<path fill-rule="evenodd" clip-rule="evenodd" d="M9.12151 21.6716C9.52551 21.8336 9.94851 21.9446 10.3805 22.0016C10.9948 22.0604 11.6132 22.0604 12.2275 22.0016C13.5788 21.8984 14.8349 21.2668 15.7235 20.2436C16.1653 19.7309 16.4761 19.1186 16.629 18.4593C16.782 17.8 16.7725 17.1135 16.6015 16.4586C16.4312 15.8139 16.1284 15.2118 15.7125 14.6906C15.3109 14.1898 14.8363 13.7522 14.3045 13.3926C14.003 13.1792 13.6647 13.0232 13.3065 12.9326C13.037 12.8681 12.756 12.8681 12.4865 12.9326C12.4516 12.9038 12.4105 12.8833 12.3665 12.8726C12.0182 12.7939 11.6568 12.7939 11.3085 12.8726C10.8095 12.9636 10.3285 13.1326 9.88051 13.3726C9.49456 13.5698 9.13281 13.8111 8.80251 14.0916C8.46251 14.3816 8.16251 14.7186 7.91251 15.0906C7.50472 15.7095 7.22721 16.405 7.0969 17.1346C6.96658 17.8643 6.98618 18.6128 7.15451 19.3346C7.27365 19.8522 7.51414 20.334 7.85614 20.7404C8.19815 21.1467 8.63186 21.4659 9.12151 21.6716ZM8.61151 15.5296C8.80284 15.209 9.03284 14.9193 9.30151 14.6606C9.58151 14.406 9.88451 14.183 10.2105 13.9916C10.5272 13.8063 10.8602 13.6563 11.2095 13.5416C11.5315 13.4376 11.8755 13.4176 12.2075 13.4816H12.2775C12.3188 13.5351 12.3751 13.5751 12.4392 13.5965C12.5033 13.6179 12.5724 13.6197 12.6375 13.6016C12.8405 13.5746 13.0475 13.6016 13.2365 13.6816C13.4598 13.769 13.6695 13.8823 13.8655 14.0216C14.3165 14.3586 14.7175 14.7586 15.0535 15.2096C15.3755 15.6506 15.6005 16.1546 15.7135 16.6876C15.8262 17.1984 15.8132 17.7289 15.6756 18.2335C15.538 18.7381 15.2799 19.2018 14.9235 19.5846C14.2031 20.3703 13.2021 20.8402 12.1375 20.8926C11.6857 20.9311 11.2314 20.9311 10.7795 20.8926C10.3564 20.8602 9.93974 20.7693 9.54151 20.6226C9.11314 20.4367 8.74459 20.1358 8.47667 19.7534C8.20874 19.3709 8.0519 18.9217 8.02351 18.4556C7.89671 17.4422 8.10348 16.4151 8.61251 15.5296" fill="#0C6FFF"/>
</svg>
