<svg width="24" height="24" viewBox="0 0 24 24" fill="none" xmlns="http://www.w3.org/2000/svg">
<path fill-rule="evenodd" clip-rule="evenodd" d="M23.5353 6.87089C23.5353 5.25089 23.4553 3.79289 23.3453 2.79389C23.2842 2.25096 23.0806 1.73384 22.7553 1.29489C22.5885 1.06185 22.3757 0.865411 22.1302 0.717682C21.8846 0.569952 21.6113 0.474054 21.3273 0.435892C18.3796 0.0900946 15.4115 -0.0502441 12.4443 0.0158924C10.433 0.000485924 8.42519 0.184722 6.4503 0.565892C5.83564 0.758893 5.27906 1.10267 4.8313 1.56589C4.52811 1.92143 4.32759 2.3529 4.2513 2.81389C4.02508 4.75011 3.94819 6.70087 4.0213 8.64889C4.05218 11.5491 4.25588 14.4449 4.6313 17.3209C4.7303 17.8259 5.0203 18.2739 5.4413 18.5709C5.98916 18.9548 6.62455 19.1951 7.2893 19.2699C8.5763 19.4099 9.8713 19.4629 11.1653 19.4299C14.1633 19.4299 17.8303 19.2199 20.0783 19.1599C20.1572 19.1462 20.2288 19.1051 20.2804 19.0438C20.3319 18.9825 20.3602 18.905 20.3602 18.8249C20.3602 18.7448 20.3319 18.6673 20.2804 18.606C20.2288 18.5447 20.1572 18.5036 20.0783 18.4899C17.8403 18.4899 14.1533 18.6299 11.1763 18.5999C9.92728 18.6164 8.67861 18.5463 7.4393 18.3899C7.0042 18.3434 6.58269 18.2108 6.1993 17.9999C6.04049 17.922 5.90086 17.81 5.79039 17.6719C5.67992 17.5338 5.60135 17.3729 5.5603 17.2009C5.46356 16.538 5.39351 15.8714 5.3503 15.2029C5.2903 14.4039 5.7103 14.8629 5.7203 14.8529L7.5693 13.2949C7.7993 13.0449 8.0393 12.8049 8.2483 12.5349C8.7383 11.9459 9.1583 11.3169 9.6973 10.7469C10.3473 9.92689 10.4673 10.1869 10.4673 9.86689C10.467 9.77689 10.4311 9.69067 10.3674 9.62712C10.3036 9.56358 10.2173 9.52789 10.1273 9.52789C9.6573 9.52789 7.9883 11.1369 7.8383 11.2969C7.4583 11.6969 7.1193 12.1359 6.7393 12.5659L5.2823 14.1639C5.20485 12.7996 5.15151 11.4341 5.1223 10.0679C5.05695 7.91474 5.11371 5.75962 5.2923 3.61289L7.0703 5.61189C7.75265 6.45287 8.48321 7.25355 9.2583 8.00989C10.049 8.73323 10.885 9.39923 11.7663 10.0079C12.1463 10.2946 12.5426 10.5579 12.9553 10.7979C13.2093 10.9169 13.4843 10.9879 13.7653 11.0069C14.1088 11.0305 14.4525 10.9651 14.7633 10.8169C15.2865 10.4979 15.7757 10.1263 16.2233 9.70789L16.7623 9.23789C16.7623 9.31789 16.7023 9.30789 16.9523 9.60789C17.2023 9.90789 18.0613 10.8569 18.2103 11.0069C18.5703 11.3069 18.9003 11.6269 19.2103 11.9069C19.7493 12.3659 20.3093 12.7649 20.8583 13.2149C20.889 13.2495 20.9265 13.2774 20.9684 13.297C21.0104 13.3166 21.0558 13.3274 21.1021 13.3288C21.1483 13.3302 21.1944 13.3222 21.2374 13.3052C21.2804 13.2882 21.3195 13.2625 21.3523 13.2299C21.3852 13.1972 21.411 13.158 21.4282 13.115C21.4454 13.0719 21.4536 13.0257 21.4522 12.9794C21.4509 12.933 21.4402 12.8874 21.4206 12.8453C21.401 12.8033 21.373 12.7657 21.3383 12.7349C20.8783 12.1749 20.4583 11.6159 19.9483 11.1069C19.6115 10.7693 19.2549 10.4521 18.8803 10.1569C17.1813 9.06889 17.0613 8.92889 17.0413 8.92889C17.4013 8.61889 17.7613 8.30889 18.1113 7.98889C18.7542 7.41434 19.3805 6.82143 19.9893 6.21089C20.2126 5.99336 20.4229 5.76297 20.6193 5.52089C20.8983 5.17189 21.1683 4.82189 21.4483 4.44289C21.4983 4.38186 21.5248 4.30493 21.523 4.22604C21.5211 4.14715 21.4911 4.07153 21.4383 4.01289C21.3734 3.95172 21.2875 3.91765 21.1983 3.91765C21.1091 3.91765 21.0232 3.95172 20.9583 4.01289C20.6583 4.37289 20.3883 4.70289 20.0983 5.01289C19.8093 5.32189 19.7093 5.41189 19.4893 5.61189C18.8598 6.1836 18.2136 6.73651 17.5513 7.26989C16.8913 7.79989 16.2423 8.26989 15.5533 8.80889C15.1953 9.11156 14.822 9.39489 14.4333 9.65889C14.2611 9.76995 14.059 9.82545 13.8543 9.81789C13.6763 9.7899 13.506 9.7252 13.3543 9.62789C13.0243 9.42789 12.7153 9.16789 12.4253 8.97789C11.5729 8.41577 10.7557 7.80196 9.9783 7.13989C9.18735 6.48258 8.4332 5.78218 7.7193 5.04189L5.6203 3.01389L5.4303 2.81389C5.5253 2.58089 5.6723 2.37189 5.8603 2.20389C6.12172 1.96599 6.43245 1.78877 6.7703 1.68489C8.65366 1.32605 10.5671 1.14857 12.4843 1.15489C15.3916 1.05898 18.3021 1.15251 21.1973 1.43489C21.3587 1.45001 21.5154 1.49768 21.6579 1.57502C21.8004 1.65236 21.9257 1.75778 22.0263 1.88489C22.2363 2.17989 22.3663 2.52489 22.4063 2.88389C22.5463 3.88389 22.6263 5.28189 22.6863 6.87989C22.8063 10.2579 22.7863 14.3339 22.8163 16.2919C22.8263 16.7519 22.7193 17.2049 22.5063 17.6119C22.4318 17.7996 22.3078 17.9637 22.1476 18.0868C21.9874 18.2098 21.7969 18.2873 21.5963 18.3109C21.5184 18.3108 21.4436 18.3411 21.3876 18.3952C21.3316 18.4493 21.2989 18.5231 21.2963 18.6009C21.2963 18.6814 21.3275 18.7588 21.3835 18.8166C21.4395 18.8745 21.5158 18.9083 21.5963 18.9109C21.8492 18.9022 22.0964 18.8332 22.3173 18.7097C22.5382 18.5862 22.7264 18.4118 22.8663 18.2009C23.2663 17.6419 23.4763 16.9699 23.4653 16.2819C23.4753 14.3339 23.5753 10.2579 23.5353 6.87089Z" fill="white"/>
<path fill-rule="evenodd" clip-rule="evenodd" d="M19.0693 20.7389C19.0252 20.7303 18.9797 20.7308 18.9358 20.7405C18.8919 20.7501 18.8504 20.7685 18.8139 20.7948C18.7774 20.821 18.7466 20.8544 18.7234 20.8929C18.7003 20.9315 18.6853 20.9743 18.6793 21.0189C18.6257 21.3574 18.5455 21.6911 18.4393 22.0169C18.3193 22.3569 18.2393 22.5669 18.0893 22.6069C16.0372 22.9553 13.956 23.1027 11.8753 23.0469C8.73529 23.0919 5.59529 22.9389 2.47329 22.5869C2.31748 22.5672 2.16723 22.5163 2.0315 22.4372C1.89578 22.3582 1.77735 22.2527 1.68329 22.1269C1.48741 21.8272 1.36761 21.4843 1.33429 21.1279C1.15429 19.8389 1.07429 17.8009 1.01429 15.6429C0.934289 12.4259 0.894289 9.00888 0.854289 7.24988C0.844289 6.77988 0.943289 6.31488 1.14429 5.89088C1.2175 5.69666 1.34148 5.52564 1.5033 5.39566C1.66512 5.26567 1.85885 5.18149 2.06429 5.15188C2.10757 5.15989 2.15209 5.15827 2.19467 5.14714C2.23726 5.13601 2.27688 5.11565 2.31071 5.0875C2.34455 5.05934 2.37178 5.02409 2.39046 4.98423C2.40915 4.94438 2.41883 4.9009 2.41883 4.85688C2.41883 4.81287 2.40915 4.76939 2.39046 4.72954C2.37178 4.68968 2.34455 4.65443 2.31071 4.62627C2.27688 4.59812 2.23726 4.57776 2.19467 4.56663C2.15209 4.5555 2.10757 4.55388 2.06429 4.56188C1.80615 4.56965 1.55379 4.64018 1.32902 4.76737C1.10426 4.89456 0.913859 5.07459 0.774289 5.29188C0.366675 5.87749 0.153618 6.57648 0.165289 7.28988C0.165289 9.28788 -0.0347107 13.5249 0.00528926 17.0219C-0.000872083 18.43 0.0692306 19.8374 0.215289 21.2379C0.272289 21.7859 0.465289 22.3109 0.775289 22.7669C0.954831 23.0197 1.18534 23.2321 1.45196 23.3903C1.71857 23.5486 2.01539 23.6493 2.32329 23.6859C4.97943 23.9426 7.64838 24.0428 10.3163 23.9859C12.9983 24.0289 15.6763 23.7939 18.3093 23.2859C18.4574 23.2354 18.5925 23.1527 18.7049 23.0438C18.8173 22.9348 18.9042 22.8024 18.9593 22.6559C19.1723 22.1695 19.3138 21.6548 19.3793 21.1279C19.3863 21.0817 19.3837 21.0345 19.3717 20.9893C19.3596 20.9441 19.3384 20.9019 19.3093 20.8653C19.2802 20.8287 19.2439 20.7985 19.2026 20.7766C19.1613 20.7547 19.1159 20.7415 19.0693 20.7379" fill="#0C6FFF"/>
</svg>
