<svg width="79" height="79" viewBox="0 0 79 79" fill="none" xmlns="http://www.w3.org/2000/svg">
<g filter="url(#filter0_d_15_226)">
<circle cx="39.5" cy="35.5" r="35.5" fill="#FC7A09"/>
<circle cx="39.5" cy="35.5" r="34" stroke="white" stroke-width="3"/>
</g>
<path d="M28 47L33 31.5L42 42L28 47Z" fill="white"/>
<path d="M37.5 29.5L36 30.5L35.5 31L36.5 31.5L39 29.5L37.5 27L36 28L37.5 29.5Z" fill="white"/>
<path d="M42.5 28.5L41 25L43.5 26L44.5 28L43.5 30.5L39 34L37.5 33L41 30.5L42.5 28.5Z" fill="white"/>
<path d="M47 28.5L40.5 35.5L42 36.5L47.5 30H49.5L50 31L51.5 30.5V29.5L50.5 28.5H47Z" fill="white"/>
<path d="M45.5 35.5L43.5 38L44.5 39L45.5 36.5H47L49.5 39L50.5 38L47.5 35.5H45.5Z" fill="white"/>
<path d="M28 47L33 31.5L42 42L28 47Z" stroke="white"/>
<path d="M37.5 29.5L36 30.5L35.5 31L36.5 31.5L39 29.5L37.5 27L36 28L37.5 29.5Z" stroke="white"/>
<path d="M42.5 28.5L41 25L43.5 26L44.5 28L43.5 30.5L39 34L37.5 33L41 30.5L42.5 28.5Z" stroke="white"/>
<path d="M47 28.5L40.5 35.5L42 36.5L47.5 30H49.5L50 31L51.5 30.5V29.5L50.5 28.5H47Z" stroke="white"/>
<path d="M45.5 35.5L43.5 38L44.5 39L45.5 36.5H47L49.5 39L50.5 38L47.5 35.5H45.5Z" stroke="white"/>
<defs>
<filter id="filter0_d_15_226" x="0" y="0" width="79" height="79" filterUnits="userSpaceOnUse" color-interpolation-filters="sRGB">
<feFlood flood-opacity="0" result="BackgroundImageFix"/>
<feColorMatrix in="SourceAlpha" type="matrix" values="0 0 0 0 0 0 0 0 0 0 0 0 0 0 0 0 0 0 127 0" result="hardAlpha"/>
<feOffset dy="4"/>
<feGaussianBlur stdDeviation="2"/>
<feComposite in2="hardAlpha" operator="out"/>
<feColorMatrix type="matrix" values="0 0 0 0 0 0 0 0 0 0 0 0 0 0 0 0 0 0 0.25 0"/>
<feBlend mode="normal" in2="BackgroundImageFix" result="effect1_dropShadow_15_226"/>
<feBlend mode="normal" in="SourceGraphic" in2="effect1_dropShadow_15_226" result="shape"/>
</filter>
</defs>
</svg>
