<svg width="76" height="77" viewBox="0 0 76 77" fill="none" xmlns="http://www.w3.org/2000/svg">
<g filter="url(#filter0_d_15_220)">
<ellipse cx="38" cy="34.5" rx="34" ry="34.5" fill="#FC7A09"/>
<path d="M38 1C56.2117 1 71 15.9846 71 34.5C71 53.0154 56.2117 68 38 68C19.7883 68 5 53.0154 5 34.5C5 15.9846 19.7883 1 38 1Z" stroke="white" stroke-width="2"/>
</g>
<path d="M28 46V23H39L45 30V33L36.5 41V46H28Z" fill="white" stroke="#EB880E" stroke-opacity="0.2"/>
<path d="M40 46.5V43.5L45 37L48 35L50.5 37V39.5L43 46.5H40Z" fill="white" stroke="#B95D06" stroke-opacity="0.05"/>
<path d="M38 30V26L42 30H38Z" fill="#FC7A09" stroke="#FC7A09"/>
<rect x="47" y="37" width="2" height="2" fill="#FC7A09"/>
<defs>
<filter id="filter0_d_15_220" x="0" y="0" width="76" height="77" filterUnits="userSpaceOnUse" color-interpolation-filters="sRGB">
<feFlood flood-opacity="0" result="BackgroundImageFix"/>
<feColorMatrix in="SourceAlpha" type="matrix" values="0 0 0 0 0 0 0 0 0 0 0 0 0 0 0 0 0 0 127 0" result="hardAlpha"/>
<feOffset dy="4"/>
<feGaussianBlur stdDeviation="2"/>
<feComposite in2="hardAlpha" operator="out"/>
<feColorMatrix type="matrix" values="0 0 0 0 0 0 0 0 0 0 0 0 0 0 0 0 0 0 0.25 0"/>
<feBlend mode="normal" in2="BackgroundImageFix" result="effect1_dropShadow_15_220"/>
<feBlend mode="normal" in="SourceGraphic" in2="effect1_dropShadow_15_220" result="shape"/>
</filter>
</defs>
</svg>
