<svg width="24" height="18" viewBox="0 0 24 18" fill="none" xmlns="http://www.w3.org/2000/svg">
<path d="M7.43997 0C6.24277 5.5783e-06 5.06325 0.28892 4.00157 0.842211C2.9399 1.3955 2.02742 2.19682 1.34163 3.17814C0.655838 4.15945 0.216985 5.29176 0.0623358 6.47893C-0.0923131 7.6661 0.0418104 8.87306 0.453317 9.99731C0.864824 11.1216 1.54156 12.1299 2.42606 12.9367C3.31056 13.7435 4.37669 14.325 5.53394 14.6317C6.69118 14.9384 7.90535 14.9613 9.07334 14.6985C10.2413 14.4357 11.3287 13.8949 12.243 13.122C12.221 13.393 12.313 13.672 12.521 13.879L16.361 17.719C16.541 17.8991 16.7853 18.0003 17.04 18.0003C17.2946 18.0003 17.5389 17.8991 17.719 17.719C17.899 17.5389 18.0002 17.2947 18.0002 17.04C18.0002 16.7853 17.899 16.5411 17.719 16.361L13.879 12.521C13.7805 12.4225 13.6618 12.3467 13.5311 12.2987C13.4004 12.2507 13.2608 12.2317 13.122 12.243C14.0377 11.1597 14.6247 9.83708 14.8137 8.43119C15.0027 7.02529 14.7858 5.59467 14.1886 4.30795C13.5914 3.02123 12.6389 1.93205 11.4432 1.16879C10.2475 0.405523 8.85851 -5.58701e-06 7.43997 0ZM1.43997 7.44C1.43997 5.8487 2.07211 4.32258 3.19733 3.19736C4.32254 2.07214 5.84867 1.44 7.43997 1.44C9.03127 1.44 10.5574 2.07214 11.6826 3.19736C12.8078 4.32258 13.44 5.8487 13.44 7.44C13.44 9.0313 12.8078 10.5574 11.6826 11.6826C10.5574 12.8079 9.03127 13.44 7.43997 13.44C5.84867 13.44 4.32254 12.8079 3.19733 11.6826C2.07211 10.5574 1.43997 9.0313 1.43997 7.44ZM20.52 10.782L18.121 7.872C17.825 7.513 18.107 7 18.601 7H23.399C23.893 7 24.175 7.513 23.879 7.873L21.479 10.782C21.4192 10.8504 21.3455 10.9052 21.2628 10.9427C21.1801 10.9802 21.0903 10.9997 20.9995 10.9997C20.9086 10.9997 20.8189 10.9802 20.7362 10.9427C20.6535 10.9052 20.5798 10.8504 20.52 10.782Z" fill="#F5F5F5"/>
</svg>
