<svg width="82" height="82" viewBox="0 0 82 82" fill="none" xmlns="http://www.w3.org/2000/svg">
<g filter="url(#filter0_d_15_225)">
<circle cx="41" cy="37" r="35.5" fill="#FC7A09"/>
<circle cx="41" cy="37" r="35.5" stroke="white" stroke-width="3"/>
</g>
<path d="M34.5 26V29.8L43.1857 34.8667H45.0143V36.1333H43.1857V38.6667H45.0143V41.2H43.1857V45H50.5V26H34.5Z" fill="white" stroke="white"/>
<path d="M35.6769 33.5693C35.6303 33.5248 35.5684 33.5 35.5041 33.5C35.4397 33.5 35.3778 33.5248 35.3313 33.5693L29.5781 39.0653C29.5537 39.0887 29.5343 39.1167 29.521 39.1478C29.5077 39.1789 29.5009 39.2124 29.5009 39.2462L29.5 44.4043C29.5 44.6696 29.6054 44.9239 29.7929 45.1115C29.9804 45.299 30.2348 45.4043 30.5 45.4043H33.5031C33.6357 45.4043 33.7629 45.3517 33.8567 45.2579C33.9504 45.1641 34.0031 45.037 34.0031 44.9043V40.6543C34.0031 40.588 34.0295 40.5245 34.0763 40.4776C34.1232 40.4307 34.1868 40.4043 34.2531 40.4043H36.7531C36.8194 40.4043 36.883 40.4307 36.9299 40.4776C36.9768 40.5245 37.0031 40.588 37.0031 40.6543V44.9043C37.0031 45.037 37.0558 45.1641 37.1496 45.2579C37.2433 45.3517 37.3705 45.4043 37.5031 45.4043H40.505C40.7702 45.4043 41.0246 45.299 41.2121 45.1115C41.3996 44.9239 41.505 44.6696 41.505 44.4043V39.2462C41.505 39.2124 41.4982 39.1789 41.485 39.1478C41.4717 39.1167 41.4522 39.0887 41.4278 39.0653L35.6769 33.5693Z" fill="white"/>
<path d="M42.3409 38.1297L40.0034 35.8934V32.5C40.0034 32.3674 39.9508 32.2402 39.857 32.1464C39.7632 32.0527 39.6361 32 39.5034 32H38.0034C37.8708 32 37.7437 32.0527 37.6499 32.1464C37.5561 32.2402 37.5034 32.3674 37.5034 32.5V33.5L35.6934 31.7694C35.5241 31.5981 35.2722 31.5 35 31.5C34.7288 31.5 34.4775 31.5981 34.3081 31.7697L27.6613 38.1291C27.4669 38.3166 27.4425 38.625 27.6194 38.8281C27.6638 38.8794 27.7182 38.9211 27.7792 38.9507C27.8403 38.9803 27.9067 38.9971 27.9745 39.0002C28.0422 39.0033 28.1099 38.9926 28.1734 38.9687C28.2369 38.9448 28.2949 38.9083 28.3438 38.8612L34.8281 32.665C34.8747 32.6205 34.9366 32.5957 35.0009 32.5957C35.0653 32.5957 35.1272 32.6205 35.1738 32.665L41.6588 38.8612C41.7543 38.9529 41.8822 39.0029 42.0146 39.0003C42.1469 38.9977 42.2728 38.9428 42.3647 38.8475C42.5566 38.6487 42.5406 38.3206 42.3409 38.1297Z" fill="white"/>
<defs>
<filter id="filter0_d_15_225" x="0" y="0" width="82" height="82" filterUnits="userSpaceOnUse" color-interpolation-filters="sRGB">
<feFlood flood-opacity="0" result="BackgroundImageFix"/>
<feColorMatrix in="SourceAlpha" type="matrix" values="0 0 0 0 0 0 0 0 0 0 0 0 0 0 0 0 0 0 127 0" result="hardAlpha"/>
<feOffset dy="4"/>
<feGaussianBlur stdDeviation="2"/>
<feComposite in2="hardAlpha" operator="out"/>
<feColorMatrix type="matrix" values="0 0 0 0 0 0 0 0 0 0 0 0 0 0 0 0 0 0 0.25 0"/>
<feBlend mode="normal" in2="BackgroundImageFix" result="effect1_dropShadow_15_225"/>
<feBlend mode="normal" in="SourceGraphic" in2="effect1_dropShadow_15_225" result="shape"/>
</filter>
</defs>
</svg>
